<svg width="139" height="22" viewBox="0 0 139 22" fill="none" xmlns="http://www.w3.org/2000/svg">
<path d="M6.31194 6.94518C6.2949 7.42231 6.56754 7.83127 7.12986 8.17207C7.69219 8.51288 8.48456 8.85368 9.50697 9.19448L10.7594 9.62901C11.5092 9.90165 12.1823 10.2425 12.7787 10.6514C13.3921 11.0604 13.9118 11.546 14.3379 12.1084C14.7639 12.6536 15.0791 13.2756 15.2836 13.9742C15.4881 14.6559 15.5647 15.4056 15.5136 16.2235C15.3943 18.0468 14.6531 19.4612 13.2899 20.4665C11.9437 21.4719 10.1034 21.9746 7.76887 21.9746C6.62718 21.9746 5.52809 21.8468 4.4716 21.5912C3.41511 21.3526 2.53754 20.9607 1.83889 20.4154C1.60033 20.2109 1.39585 19.9809 1.22545 19.7253C1.05505 19.4527 0.927245 19.1715 0.842044 18.8818C0.773883 18.5921 0.765363 18.2939 0.816484 17.9872C0.867604 17.6634 0.986885 17.3567 1.17433 17.067C1.36177 16.7774 1.62589 16.5558 1.96669 16.4025C2.3075 16.2491 2.6483 16.1639 2.9891 16.1469C3.43215 16.1298 3.78147 16.198 4.03707 16.3514C4.30972 16.5047 4.56532 16.6496 4.80388 16.7859C5.09356 16.9733 5.46845 17.1352 5.92853 17.2715C6.38862 17.3908 7.05318 17.4504 7.92223 17.4504C8.63792 17.4504 9.19172 17.3226 9.58365 17.067C9.97557 16.8114 10.1801 16.4025 10.1971 15.8401C10.1971 15.6016 10.1034 15.3715 9.91593 15.15C9.72849 14.9285 9.45585 14.724 9.098 14.5366C8.7572 14.3491 8.35676 14.1702 7.89667 13.9998C7.43659 13.8124 6.94242 13.6334 6.41418 13.463C6.2097 13.3949 5.98817 13.3182 5.74961 13.233C5.52809 13.1478 5.34065 13.0711 5.18729 13.003C4.216 12.594 3.43215 12.0913 2.83574 11.4949C2.23934 10.8815 1.78777 10.2254 1.48105 9.52677C1.19137 8.81108 1.03801 8.07835 1.02097 7.32858C1.02097 6.57882 1.13173 5.87165 1.35325 5.20708C1.79629 3.82683 2.61422 2.76182 3.80703 2.01205C5.01688 1.26229 6.49938 0.887402 8.25451 0.887402C8.91908 0.887402 9.49845 0.921483 9.99261 0.989643C10.5038 1.04076 10.9469 1.11744 11.3217 1.21969C11.7137 1.30489 12.046 1.41565 12.3186 1.55197C12.6083 1.67125 12.8724 1.79053 13.111 1.90981C13.7074 2.23358 14.1675 2.68514 14.4912 3.2645C14.832 3.84387 14.9087 4.44028 14.7213 5.05372C14.5509 5.58197 14.2612 5.95685 13.8522 6.17837C13.4603 6.3999 13.0172 6.51066 12.5231 6.51066C12.3356 6.51066 12.1226 6.47658 11.8841 6.40842C11.6455 6.34025 11.4666 6.26357 11.3473 6.17837C11.0406 5.97389 10.6487 5.79497 10.1715 5.64161C9.69441 5.48825 9.07244 5.41157 8.30564 5.41157C7.69219 5.41157 7.20655 5.53937 6.8487 5.79497C6.5079 6.03353 6.32898 6.41694 6.31194 6.94518ZM24.0204 21.9746C23.1002 21.9746 22.1715 21.8553 21.2343 21.6168C20.2971 21.3782 19.4451 20.9863 18.6783 20.441C17.9285 19.8957 17.3151 19.1715 16.838 18.2684C16.3779 17.3482 16.1478 16.2235 16.1478 14.8944V12.6451C16.1478 11.2819 16.3694 10.1487 16.8124 9.2456C17.2725 8.34247 17.8519 7.61827 18.5505 7.07298C19.2662 6.5277 20.05 6.14429 20.902 5.92277C21.7711 5.68421 22.6146 5.56493 23.4325 5.56493C24.3186 5.56493 25.1791 5.67569 26.0141 5.89721C26.8661 6.10169 27.6244 6.50214 28.289 7.09854C28.9535 7.69495 29.4818 8.52992 29.8737 9.60345C30.2827 10.6599 30.4871 12.0317 30.4871 13.7186C30.4871 13.9402 30.4701 14.2043 30.436 14.511C30.419 14.8177 30.3934 15.0819 30.3593 15.3034H21.2088V15.3289C21.2088 15.772 21.3025 16.1383 21.4899 16.428C21.6774 16.7177 21.9159 16.9563 22.2056 17.1437C22.4953 17.3312 22.8105 17.4675 23.1513 17.5527C23.4921 17.6208 23.8159 17.6549 24.1226 17.6549C24.7531 17.6549 25.2388 17.6294 25.5796 17.5782C25.9204 17.5271 26.2612 17.4419 26.602 17.3226C26.7894 17.2545 26.9769 17.1863 27.1643 17.1182C27.3688 17.033 27.5818 16.9733 27.8033 16.9392C28.2464 16.8881 28.6468 16.9392 29.0046 17.0926C29.3795 17.246 29.6522 17.5186 29.8226 17.9105C30.0952 18.541 30.0952 19.1204 29.8226 19.6486C29.567 20.1598 29.1324 20.5944 28.519 20.9522C28.3145 21.0715 28.0504 21.1908 27.7266 21.31C27.4199 21.4293 27.0621 21.5401 26.6531 21.6423C26.2612 21.7446 25.8352 21.8212 25.3751 21.8724C24.932 21.9405 24.4805 21.9746 24.0204 21.9746ZM23.4581 9.70569C23.1684 9.70569 22.8872 9.74829 22.6146 9.83349C22.359 9.90165 22.1289 10.0295 21.9245 10.2169C21.72 10.3873 21.5496 10.6173 21.4132 10.907C21.2769 11.1797 21.2088 11.529 21.2088 11.955H25.5284C25.5455 11.529 25.4944 11.1797 25.3751 10.907C25.2728 10.6173 25.128 10.3873 24.9406 10.2169C24.7531 10.0295 24.5231 9.90165 24.2504 9.83349C23.9948 9.74829 23.7307 9.70569 23.4581 9.70569ZM41.365 21.5401L41.1605 20.4665C40.6664 20.9266 40.087 21.293 39.4224 21.5656C38.7579 21.8383 38.0422 21.9746 37.2754 21.9746H36.7131C36.1848 21.9746 35.614 21.8894 35.0005 21.719C34.3871 21.5656 33.8162 21.293 33.288 20.9011C32.7768 20.5092 32.3422 19.9809 31.9844 19.3163C31.6436 18.6518 31.4732 17.8168 31.4732 16.8114C31.4732 15.8401 31.6436 15.0307 31.9844 14.3832C32.3252 13.7357 32.7768 13.216 33.3391 12.824C33.9185 12.4321 34.583 12.151 35.3328 11.9805C36.0996 11.8101 36.9005 11.7249 37.7355 11.7249H40.3682C40.3511 11.3501 40.2744 11.0433 40.1381 10.8048C40.0188 10.5492 39.8484 10.3532 39.6269 10.2169C39.4224 10.0635 39.1754 9.96129 38.8857 9.91017C38.613 9.84201 38.3233 9.80793 38.0166 9.80793C37.7269 9.80793 37.4458 9.83349 37.1731 9.88461C36.9005 9.93573 36.6108 10.0039 36.3041 10.0891C36.0996 10.1573 35.9036 10.2339 35.7162 10.3191C35.5458 10.4043 35.3413 10.4981 35.1028 10.6003C34.8642 10.7196 34.6086 10.7877 34.3359 10.8048C34.0803 10.8048 33.8247 10.7707 33.5691 10.7025C33.3135 10.6173 33.075 10.4895 32.8535 10.3191C32.649 10.1487 32.4871 9.93573 32.3678 9.68013C32.1292 9.16892 32.0952 8.67476 32.2656 8.19763C32.436 7.70347 32.7427 7.28598 33.1857 6.94518C33.5265 6.68958 33.9099 6.47658 34.3359 6.30617C34.762 6.13577 35.205 5.99945 35.6651 5.89721C36.1252 5.77793 36.5852 5.69273 37.0453 5.64161C37.5225 5.59049 37.9825 5.56493 38.4256 5.56493C39.3458 5.56493 40.2233 5.66717 41.0583 5.87165C41.9103 6.05909 42.6515 6.40842 43.282 6.91962C43.9296 7.41379 44.4408 8.10391 44.8156 8.99C45.2076 9.87609 45.4035 11.0093 45.4035 12.3895V21.5401H41.365ZM40.3682 15.4823H38.0422C37.548 15.4823 37.1731 15.6016 36.9175 15.8401C36.6619 16.0617 36.5341 16.3769 36.5341 16.7859C36.5341 17.2119 36.6619 17.5271 36.9175 17.7316C37.1731 17.9361 37.5225 18.0383 37.9655 18.0383H38.3233C38.5619 18.0383 38.8005 18.0042 39.039 17.9361C39.2776 17.8679 39.4906 17.7657 39.678 17.6294C39.8825 17.493 40.0444 17.3226 40.1637 17.1182C40.3 16.9137 40.3682 16.6751 40.3682 16.4025V15.4823ZM48.6717 10.2936H47.8282C47.0273 10.2936 46.4479 10.0806 46.0901 9.65457C45.7493 9.22856 45.5789 8.74292 45.5789 8.19763C45.5789 7.94203 45.6129 7.68643 45.6811 7.43083C45.7663 7.17522 45.8941 6.94518 46.0645 6.7407C46.2519 6.53622 46.4905 6.37433 46.7802 6.25505C47.0699 6.11873 47.4192 6.05057 47.8282 6.05057H48.6717V3.39231C48.6717 2.9663 48.7398 2.59142 48.8761 2.26766C49.0295 1.94389 49.2255 1.67977 49.464 1.47529C49.7026 1.27081 49.9667 1.11744 50.2564 1.0152C50.5631 0.912963 50.8784 0.861842 51.2021 0.861842C51.5259 0.861842 51.8326 0.912963 52.1223 1.0152C52.429 1.11744 52.7016 1.27081 52.9402 1.47529C53.1788 1.67977 53.3662 1.94389 53.5025 2.26766C53.6559 2.59142 53.7326 2.9663 53.7326 3.39231V6.05057H55.2406C55.6496 6.05057 55.9904 6.11873 56.263 6.25505C56.5527 6.37433 56.7828 6.53622 56.9532 6.7407C57.1406 6.94518 57.2769 7.17522 57.3621 7.43083C57.4473 7.68643 57.4899 7.94203 57.4899 8.19763C57.4899 8.74292 57.311 9.22856 56.9532 9.65457C56.6124 10.0806 56.0415 10.2936 55.2406 10.2936H53.7326V16.6325C53.7326 17.0244 53.8093 17.28 53.9626 17.3993C54.133 17.5186 54.329 17.5868 54.5505 17.6038C54.7379 17.6208 54.9084 17.6123 55.0617 17.5782C55.2151 17.5271 55.4196 17.5016 55.6752 17.5016C56.1012 17.5016 56.476 17.6294 56.7998 17.885C57.1236 18.1406 57.3281 18.4814 57.4133 18.9074C57.5325 19.4356 57.4899 19.9042 57.2855 20.3132C57.098 20.7222 56.8254 21.0459 56.4675 21.2845C56.1778 21.4719 55.8115 21.6338 55.3684 21.7701C54.9254 21.9064 54.4823 21.9746 54.0393 21.9746C53.1873 21.9746 52.429 21.8809 51.7644 21.6934C51.0999 21.506 50.5375 21.2078 50.0775 20.7988C49.6174 20.3899 49.2681 19.8531 49.0295 19.1885C48.7909 18.524 48.6717 17.706 48.6717 16.7348V10.2936ZM69.1192 6.94518C69.1022 7.42231 69.3748 7.83127 69.9372 8.17207C70.4995 8.51288 71.2919 8.85368 72.3143 9.19448L73.5667 9.62901C74.3165 9.90165 74.9896 10.2425 75.586 10.6514C76.1994 11.0604 76.7192 11.546 77.1452 12.1084C77.5712 12.6536 77.8864 13.2756 78.0909 13.9742C78.2954 14.6559 78.3721 15.4056 78.3209 16.2235C78.2017 18.0468 77.4604 19.4612 76.0972 20.4665C74.751 21.4719 72.9107 21.9746 70.5762 21.9746C69.4345 21.9746 68.3354 21.8468 67.2789 21.5912C66.2224 21.3526 65.3448 20.9607 64.6462 20.4154C64.4076 20.2109 64.2032 19.9809 64.0328 19.7253C63.8624 19.4527 63.7346 19.1715 63.6494 18.8818C63.5812 18.5921 63.5727 18.2939 63.6238 17.9872C63.6749 17.6634 63.7942 17.3567 63.9816 17.067C64.1691 16.7774 64.4332 16.5558 64.774 16.4025C65.1148 16.2491 65.4556 16.1639 65.7964 16.1469C66.2395 16.1298 66.5888 16.198 66.8444 16.3514C67.117 16.5047 67.3726 16.6496 67.6112 16.7859C67.9009 16.9733 68.2758 17.1352 68.7358 17.2715C69.1959 17.3908 69.8605 17.4504 70.7295 17.4504C71.4452 17.4504 71.999 17.3226 72.391 17.067C72.7829 16.8114 72.9874 16.4025 73.0044 15.8401C73.0044 15.6016 72.9107 15.3715 72.7232 15.15C72.5358 14.9285 72.2632 14.724 71.9053 14.5366C71.5645 14.3491 71.1641 14.1702 70.704 13.9998C70.2439 13.8124 69.7497 13.6334 69.2215 13.463C69.017 13.3949 68.7955 13.3182 68.5569 13.233C68.3354 13.1478 68.148 13.0711 67.9946 13.003C67.0233 12.594 66.2395 12.0913 65.6431 11.4949C65.0466 10.8815 64.5951 10.2254 64.2884 9.52677C63.9987 8.81108 63.8453 8.07835 63.8283 7.32858C63.8283 6.57882 63.939 5.87165 64.1606 5.20708C64.6036 3.82683 65.4215 2.76182 66.6143 2.01205C67.8242 1.26229 69.3067 0.887402 71.0618 0.887402C71.7264 0.887402 72.3058 0.921483 72.7999 0.989643C73.3111 1.04076 73.7542 1.11744 74.1291 1.21969C74.521 1.30489 74.8533 1.41565 75.1259 1.55197C75.4156 1.67125 75.6797 1.79053 75.9183 1.90981C76.5147 2.23358 76.9748 2.68514 77.2985 3.2645C77.6393 3.84387 77.716 4.44028 77.5286 5.05372C77.3582 5.58197 77.0685 5.95685 76.6595 6.17837C76.2676 6.3999 75.8245 6.51066 75.3304 6.51066C75.1429 6.51066 74.9299 6.47658 74.6914 6.40842C74.4528 6.34025 74.2739 6.26357 74.1546 6.17837C73.8479 5.97389 73.456 5.79497 72.9788 5.64161C72.5017 5.48825 71.8798 5.41157 71.1129 5.41157C70.4995 5.41157 70.0139 5.53937 69.656 5.79497C69.3152 6.03353 69.1363 6.41694 69.1192 6.94518ZM86.8277 21.9746C85.9075 21.9746 84.9788 21.8553 84.0416 21.6168C83.1044 21.3782 82.2524 20.9863 81.4856 20.441C80.7358 19.8957 80.1224 19.1715 79.6453 18.2684C79.1852 17.3482 78.9551 16.2235 78.9551 14.8944V12.6451C78.9551 11.2819 79.1767 10.1487 79.6197 9.2456C80.0798 8.34247 80.6592 7.61827 81.3578 7.07298C82.0735 6.5277 82.8573 6.14429 83.7094 5.92277C84.5784 5.68421 85.4219 5.56493 86.2398 5.56493C87.1259 5.56493 87.9864 5.67569 88.8214 5.89721C89.6734 6.10169 90.4317 6.50214 91.0963 7.09854C91.7608 7.69495 92.2891 8.52992 92.681 9.60345C93.09 10.6599 93.2944 12.0317 93.2944 13.7186C93.2944 13.9402 93.2774 14.2043 93.2433 14.511C93.2263 14.8177 93.2007 15.0819 93.1666 15.3034H84.0161V15.3289C84.0161 15.772 84.1098 16.1383 84.2972 16.428C84.4847 16.7177 84.7232 16.9563 85.0129 17.1437C85.3026 17.3312 85.6178 17.4675 85.9587 17.5527C86.2995 17.6208 86.6232 17.6549 86.9299 17.6549C87.5604 17.6549 88.0461 17.6294 88.3869 17.5782C88.7277 17.5271 89.0685 17.4419 89.4093 17.3226C89.5967 17.2545 89.7842 17.1863 89.9716 17.1182C90.1761 17.033 90.3891 16.9733 90.6106 16.9392C91.0537 16.8881 91.4541 16.9392 91.8119 17.0926C92.1868 17.246 92.4595 17.5186 92.6299 17.9105C92.9025 18.541 92.9025 19.1204 92.6299 19.6486C92.3743 20.1598 91.9397 20.5944 91.3263 20.9522C91.1218 21.0715 90.8577 21.1908 90.5339 21.31C90.2272 21.4293 89.8694 21.5401 89.4604 21.6423C89.0685 21.7446 88.6425 21.8212 88.1824 21.8724C87.7393 21.9405 87.2878 21.9746 86.8277 21.9746ZM86.2654 9.70569C85.9757 9.70569 85.6945 9.74829 85.4219 9.83349C85.1663 9.90165 84.9362 10.0295 84.7318 10.2169C84.5273 10.3873 84.3569 10.6173 84.2206 10.907C84.0842 11.1797 84.0161 11.529 84.0161 11.955H88.3358C88.3528 11.529 88.3017 11.1797 88.1824 10.907C88.0802 10.6173 87.9353 10.3873 87.7479 10.2169C87.5604 10.0295 87.3304 9.90165 87.0577 9.83349C86.8021 9.74829 86.538 9.70569 86.2654 9.70569ZM94.5617 21.5401V8.12095C94.5617 7.69495 94.6298 7.32858 94.7662 7.02186C94.9195 6.6981 95.1155 6.43398 95.354 6.22949C95.5926 6.00797 95.8652 5.84609 96.172 5.74385C96.4787 5.62457 96.8025 5.56493 97.1433 5.56493C97.6374 5.56493 98.0975 5.68421 98.5235 5.92277C98.9666 6.16133 99.2988 6.51066 99.5204 6.97074C100.015 6.51066 100.585 6.16133 101.233 5.92277C101.897 5.68421 102.571 5.56493 103.252 5.56493C104.07 5.56493 104.828 5.67569 105.527 5.89721C106.243 6.11873 106.856 6.50214 107.367 7.04742C107.896 7.57567 108.313 8.29135 108.62 9.19448C108.927 10.0976 109.08 11.2223 109.08 12.5684V21.5401H103.814V12.2617C103.814 11.8357 103.746 11.4779 103.61 11.1882C103.491 10.8815 103.329 10.6344 103.124 10.4469C102.937 10.2595 102.724 10.1317 102.485 10.0635C102.247 9.97833 102.017 9.93573 101.795 9.93573C101.574 9.93573 101.344 9.97833 101.105 10.0635C100.867 10.1317 100.645 10.2595 100.441 10.4469C100.236 10.6344 100.066 10.8815 99.9293 11.1882C99.81 11.4779 99.7504 11.8357 99.7504 12.2617V21.5401H94.5617ZM115.445 10.4469C115.411 10.7537 115.59 10.9837 115.982 11.1371C116.391 11.2904 117.073 11.4523 118.027 11.6227C118.197 11.6568 118.359 11.6909 118.513 11.7249C118.683 11.759 118.845 11.7931 118.998 11.8272C120.532 12.2191 121.657 12.8922 122.372 13.8464C123.088 14.7837 123.352 16.0276 123.165 17.5782C123.062 18.328 122.815 18.9841 122.423 19.5464C122.048 20.0917 121.554 20.5432 120.941 20.9011C120.327 21.2589 119.62 21.523 118.819 21.6934C118.035 21.8809 117.201 21.9746 116.314 21.9746C115.871 21.9746 115.411 21.949 114.934 21.8979C114.474 21.8638 114.014 21.7957 113.554 21.6934C113.094 21.5912 112.651 21.4549 112.225 21.2845C111.799 21.097 111.424 20.867 111.1 20.5944C110.657 20.2195 110.35 19.7594 110.18 19.2141C110.027 18.6518 110.129 18.098 110.487 17.5527C110.674 17.28 110.904 17.0841 111.177 16.9648C111.467 16.8455 111.782 16.7774 112.123 16.7603C112.532 16.7433 112.855 16.8029 113.094 16.9392C113.332 17.0756 113.562 17.2119 113.784 17.3482C114.057 17.5186 114.449 17.6549 114.96 17.7572C115.471 17.8594 115.974 17.9105 116.468 17.9105C116.962 17.9105 117.337 17.8253 117.592 17.6549C117.865 17.4845 118.018 17.28 118.053 17.0415C118.087 16.7348 117.822 16.4962 117.26 16.3258C116.715 16.1383 115.948 15.9424 114.96 15.7379C114.772 15.7038 114.585 15.6697 114.397 15.6357C114.227 15.5845 114.065 15.5334 113.912 15.4823C112.906 15.1756 112.123 14.7666 111.56 14.2554C110.998 13.7272 110.606 13.1478 110.384 12.5173C110.163 11.8868 110.086 11.2308 110.154 10.5492C110.223 9.86757 110.393 9.22856 110.666 8.63216C110.921 8.10391 111.254 7.64383 111.662 7.2519C112.088 6.85998 112.566 6.54474 113.094 6.30617C113.639 6.05057 114.218 5.86313 114.832 5.74385C115.445 5.62457 116.076 5.56493 116.723 5.56493C117.746 5.56493 118.623 5.65865 119.356 5.84609C120.089 6.03353 120.677 6.25505 121.12 6.51066C121.648 6.80034 122.065 7.20078 122.372 7.71199C122.679 8.20615 122.747 8.74292 122.577 9.32228C122.423 9.81645 122.168 10.1573 121.81 10.3447C121.452 10.5321 121.043 10.6259 120.583 10.6259C120.413 10.6259 120.217 10.6003 119.995 10.5492C119.791 10.481 119.629 10.4043 119.509 10.3191C119.356 10.2169 119.169 10.1317 118.947 10.0635C118.726 9.97833 118.487 9.90165 118.231 9.83349C117.993 9.76533 117.746 9.71421 117.49 9.68013C117.235 9.64605 117.005 9.62901 116.8 9.62901C116.391 9.62901 116.067 9.71421 115.829 9.88461C115.59 10.038 115.462 10.2254 115.445 10.4469ZM131.686 21.9746C130.766 21.9746 129.837 21.8553 128.9 21.6168C127.963 21.3782 127.111 20.9863 126.344 20.441C125.594 19.8957 124.981 19.1715 124.504 18.2684C124.043 17.3482 123.813 16.2235 123.813 14.8944V12.6451C123.813 11.2819 124.035 10.1487 124.478 9.2456C124.938 8.34247 125.517 7.61827 126.216 7.07298C126.932 6.5277 127.716 6.14429 128.568 5.92277C129.437 5.68421 130.28 5.56493 131.098 5.56493C131.984 5.56493 132.845 5.67569 133.68 5.89721C134.532 6.10169 135.29 6.50214 135.954 7.09854C136.619 7.69495 137.147 8.52992 137.539 9.60345C137.948 10.6599 138.153 12.0317 138.153 13.7186C138.153 13.9402 138.136 14.2043 138.102 14.511C138.085 14.8177 138.059 15.0819 138.025 15.3034H128.874V15.3289C128.874 15.772 128.968 16.1383 129.155 16.428C129.343 16.7177 129.581 16.9563 129.871 17.1437C130.161 17.3312 130.476 17.4675 130.817 17.5527C131.158 17.6208 131.481 17.6549 131.788 17.6549C132.419 17.6549 132.904 17.6294 133.245 17.5782C133.586 17.5271 133.927 17.4419 134.268 17.3226C134.455 17.2545 134.642 17.1863 134.83 17.1182C135.034 17.033 135.247 16.9733 135.469 16.9392C135.912 16.8881 136.312 16.9392 136.67 17.0926C137.045 17.246 137.318 17.5186 137.488 17.9105C137.761 18.541 137.761 19.1204 137.488 19.6486C137.233 20.1598 136.798 20.5944 136.185 20.9522C135.98 21.0715 135.716 21.1908 135.392 21.31C135.085 21.4293 134.728 21.5401 134.319 21.6423C133.927 21.7446 133.501 21.8212 133.041 21.8724C132.598 21.9405 132.146 21.9746 131.686 21.9746ZM131.124 9.70569C130.834 9.70569 130.553 9.74829 130.28 9.83349C130.025 9.90165 129.794 10.0295 129.59 10.2169C129.386 10.3873 129.215 10.6173 129.079 10.907C128.942 11.1797 128.874 11.529 128.874 11.955H133.194C133.211 11.529 133.16 11.1797 133.041 10.907C132.938 10.6173 132.794 10.3873 132.606 10.2169C132.419 10.0295 132.189 9.90165 131.916 9.83349C131.66 9.74829 131.396 9.70569 131.124 9.70569Z" fill="white"/>
</svg>
