<svg width="18" height="18" viewBox="0 0 18 18" fill="none" xmlns="http://www.w3.org/2000/svg">
<g clip-path="url(#clip0_1827_12314)">
<path d="M9 0.75C4.425 0.75 0.75 4.425 0.75 9C0.75 13.575 4.425 17.25 9 17.25C13.575 17.25 17.25 13.575 17.25 9C17.25 4.425 13.575 0.75 9 0.75ZM13.3125 7.3875L8.3625 12.3375C8.2875 12.4125 8.175 12.4125 8.1 12.3375L4.575 8.8125C4.5 8.7375 4.5 8.625 4.575 8.55L5.625 7.5C5.7 7.425 5.8125 7.425 5.8875 7.5L8.2125 9.825L11.9625 6.075C12.0375 6 12.15 6 12.225 6.075L13.275 7.125C13.3875 7.2 13.3875 7.3125 13.3125 7.3875Z" fill="#09DC44"/>
</g>
<defs>
<clipPath id="clip0_1827_12314">
<rect width="18" height="18" fill="white"/>
</clipPath>
</defs>
</svg>
