<svg width="1.6rem" height="1.7rem" viewBox="0 0 16 17" fill="none" xmlns="http://www.w3.org/2000/svg">
<mask id="mask0_115_34846" style="mask-type:alpha" maskUnits="userSpaceOnUse" x="1" y="1" width="14" height="15">
<path fill-rule="evenodd" clip-rule="evenodd" d="M8.00016 1.83334C4.32016 1.83334 1.3335 4.82 1.3335 8.5C1.3335 12.18 4.32016 15.1667 8.00016 15.1667C11.6802 15.1667 14.6668 12.18 14.6668 8.5C14.6668 4.82 11.6802 1.83334 8.00016 1.83334ZM8.00016 9.16667C7.6335 9.16667 7.3335 8.86667 7.3335 8.5V5.83334C7.3335 5.46667 7.6335 5.16667 8.00016 5.16667C8.36683 5.16667 8.66683 5.46667 8.66683 5.83334V8.5C8.66683 8.86667 8.36683 9.16667 8.00016 9.16667ZM7.3335 10.5V11.8333H8.66683V10.5H7.3335Z" fill="black"/>
</mask>
<g mask="url(#mask0_115_34846)">
<rect y="0.5" width="16" height="16" fill="#FB2B2B"/>
</g>
</svg>
