<svg width="2.4rem" height="2.4rem" viewBox="0 0 24 24" fill="none" xmlns="http://www.w3.org/2000/svg">
<path d="M1 4.57492C1 3.62679 1.37666 2.7175 2.04711 2.04707C2.71756 1.37664 3.62689 1 4.57505 1H17.2241C18.1723 1 19.0816 1.37664 19.7521 2.04707C20.4225 2.7175 20.7992 3.62679 20.7992 4.57492V9.81191C20.2378 9.76319 19.6729 9.84605 19.1491 10.0539V8.69983H14.7491V13.0997H15.6896L13.0991 15.6902V14.7497H8.699V19.1496H10.3941C10.3865 19.1774 10.3792 19.2053 10.3721 19.2332L9.98052 20.7985H4.57505C4.10547 20.7985 3.6405 20.706 3.20668 20.5262C2.77287 20.3465 2.37871 20.0831 2.04672 19.751C1.71473 19.4189 1.45142 19.0247 1.27182 18.5908C1.09222 18.157 0.999856 17.692 1 17.2224V4.57492ZM4.57505 2.64996C4.0645 2.64996 3.57486 2.85277 3.21385 3.21377C2.85284 3.57477 2.65002 4.06439 2.65002 4.57492V7.04987H7.05008V2.64996H4.57505ZM2.65002 8.69983V13.0986H7.05008V8.69873H2.65002V8.69983ZM8.7001 8.69983V13.0986H13.0991V8.69873H8.699L8.7001 8.69983ZM14.7491 7.04987H19.1491V4.57492C19.1491 4.06439 18.9463 3.57477 18.5853 3.21377C18.2243 2.85277 17.7347 2.64996 17.2241 2.64996H14.7491V7.04987ZM13.0991 2.64996H8.699V7.04987H13.0991V2.64996ZM2.64892 14.7486V17.2235C2.64892 18.2861 3.51133 19.1485 4.57395 19.1485H7.05008V14.7486H2.64892ZM19.4417 11.1253C19.1685 11.2499 18.9199 11.4228 18.708 11.6357L12.2168 18.1266C11.8379 18.5052 11.569 18.9797 11.4391 19.4994L10.9364 21.5123C10.7164 22.389 11.5106 23.1821 12.3863 22.9632L14.3993 22.4594C14.9188 22.3298 15.3934 22.0614 15.7721 21.6828L22.2633 15.1897C22.6802 14.7729 22.9374 14.2229 22.99 13.6357C23.0426 13.0486 22.8872 12.4616 22.551 11.9774C22.2148 11.4932 21.7191 11.1424 21.1506 10.9865C20.5821 10.8305 19.9769 10.8793 19.4406 11.1242L19.4417 11.1253Z" fill="#FF8D4E"/>
</svg>
