<svg width="2.4rem" height="2.4rem" viewBox="0 0 24 24" fill="none" xmlns="http://www.w3.org/2000/svg">
<path fill-rule="evenodd" clip-rule="evenodd" d="M17.4127 1.83333H4.66667C3.65415 1.83333 2.83333 2.65415 2.83333 3.66667V16.4127C2.83333 17.4252 3.65415 18.246 4.66667 18.246H10.224C10.3714 18.8928 10.6021 19.5079 10.9042 20.0794H4.66667C2.64163 20.0794 1 18.4377 1 16.4127V3.66667C1 1.64163 2.64162 0 4.66667 0H17.4127C19.4377 0 21.0794 1.64162 21.0794 3.66667V9.90419C20.5079 9.60209 19.8928 9.37139 19.246 9.22395V3.66667C19.246 2.65415 18.4252 1.83333 17.4127 1.83333ZM16.4552 9.117C16.3336 9.06469 16.1996 9.03571 16.0588 9.03571H6.01913C5.46465 9.03571 5.01516 9.48521 5.01516 10.0397C5.01516 10.5942 5.46465 11.0437 6.01913 11.0437H12.4462C13.5333 10.0353 14.9186 9.34408 16.4552 9.117ZM10.9042 13.0515H6.01913C5.46465 13.0515 5.01516 13.501 5.01516 14.0555C5.01516 14.61 5.46465 15.0595 6.01913 15.0595H10.1863C10.3306 14.3487 10.575 13.6743 10.9042 13.0515ZM5.01516 6.02385C5.01516 5.46938 5.46465 5.01989 6.01913 5.01989H16.0588C16.6133 5.01989 17.0628 5.46938 17.0628 6.02385C17.0628 6.57833 16.6133 7.02782 16.0588 7.02782H6.01913C5.46465 7.02782 5.01516 6.57833 5.01516 6.02385Z" fill="white"/>
<path d="M17.5007 21.9168C20.4922 21.9168 22.9173 19.4917 22.9173 16.5002C22.9173 13.5086 20.4922 11.0835 17.5007 11.0835C14.5091 11.0835 12.084 13.5086 12.084 16.5002C12.084 19.4917 14.5091 21.9168 17.5007 21.9168Z" fill="white"/>
<path d="M17.5 13.25V16.5L19.6667 17.5833" stroke="#303030" stroke-width="0.986115" stroke-linecap="round" stroke-linejoin="round"/>
</svg>
